{
	"asset":{
		"generator":"Khronos glTF Blender I/O v5.2.40",
		"version":"2.0"
	},
	"scene":0,
	"scenes":[
		{
			"name":"Scene",
			"nodes":[
				17
			]
		}
	],
	"nodes":[
		{
			"extras":{
				"collision_shape":"CONVEX_MESH",
				"game_collision":true,
				"render_geometry":false
			},
			"mesh":0,
			"name":"COL_001_Terrain"
		},
		{
			"extras":{
				"collision_shape":"CONVEX_MESH",
				"game_collision":true,
				"render_geometry":false
			},
			"mesh":1,
			"name":"COL_002_Terraces"
		},
		{
			"extras":{
				"collision_shape":"CONVEX_MESH",
				"game_collision":true,
				"render_geometry":false
			},
			"mesh":2,
			"name":"COL_003_Terraces"
		},
		{
			"extras":{
				"collision_shape":"CONVEX_MESH",
				"game_collision":true,
				"render_geometry":false
			},
			"mesh":3,
			"name":"COL_004_StairRamp"
		},
		{
			"extras":{
				"collision_shape":"CONVEX_MESH",
				"game_collision":true,
				"render_geometry":false
			},
			"mesh":4,
			"name":"COL_005_StairRamp"
		},
		{
			"extras":{
				"collision_shape":"CONVEX_MESH",
				"game_collision":true,
				"render_geometry":false
			},
			"mesh":5,
			"name":"COL_006_StairRamp"
		},
		{
			"extras":{
				"collision_shape":"CONVEX_MESH",
				"game_collision":true,
				"render_geometry":false
			},
			"mesh":6,
			"name":"COL_007_StairRamp"
		},
		{
			"extras":{
				"collision_shape":"CONVEX_MESH",
				"game_collision":true,
				"render_geometry":false
			},
			"mesh":7,
			"name":"COL_008_House"
		},
		{
			"extras":{
				"collision_shape":"CONVEX_MESH",
				"game_collision":true,
				"render_geometry":false
			},
			"mesh":8,
			"name":"COL_009_House"
		},
		{
			"extras":{
				"collision_shape":"CONVEX_MESH",
				"game_collision":true,
				"render_geometry":false
			},
			"mesh":9,
			"name":"COL_010_House"
		},
		{
			"extras":{
				"collision_shape":"CONVEX_MESH",
				"game_collision":true,
				"render_geometry":false
			},
			"mesh":10,
			"name":"COL_011_House"
		},
		{
			"extras":{
				"collision_shape":"CONVEX_MESH",
				"game_collision":true,
				"render_geometry":false
			},
			"mesh":11,
			"name":"COL_012_House"
		},
		{
			"extras":{
				"collision_shape":"CONVEX_MESH",
				"game_collision":true,
				"render_geometry":false
			},
			"mesh":12,
			"name":"COL_013_House"
		},
		{
			"extras":{
				"collision_shape":"CONVEX_MESH",
				"game_collision":true,
				"render_geometry":false
			},
			"mesh":13,
			"name":"COL_014_Dock"
		},
		{
			"extras":{
				"collision_shape":"CONVEX_MESH",
				"game_collision":true,
				"render_geometry":false
			},
			"mesh":14,
			"name":"COL_015_Dock"
		},
		{
			"extras":{
				"collision_shape":"CONVEX_MESH",
				"game_collision":true,
				"render_geometry":false
			},
			"mesh":15,
			"name":"COL_016_Dock"
		},
		{
			"extras":{
				"collision_shape":"CONVEX_MESH",
				"game_collision":true,
				"render_geometry":false
			},
			"mesh":16,
			"name":"COL_017_Dock"
		},
		{
			"children":[
				0,
				1,
				2,
				3,
				4,
				5,
				6,
				7,
				8,
				9,
				10,
				11,
				12,
				13,
				14,
				15,
				16
			],
			"extras":{
				"units":"metres",
				"reference_note":"Visible proportions reconstructed; hidden sides inferred.",
				"visual_triangles":24984,
				"collision_objects":17
			},
			"name":"ReferenceMarketHarbor"
		}
	],
	"meshes":[
		{
			"name":"COL_001_Terrain",
			"primitives":[
				{
					"attributes":{
						"POSITION":0,
						"NORMAL":1
					},
					"indices":2
				}
			]
		},
		{
			"name":"COL_002_Terraces",
			"primitives":[
				{
					"attributes":{
						"POSITION":3,
						"NORMAL":4
					},
					"indices":5
				}
			]
		},
		{
			"name":"COL_003_Terraces",
			"primitives":[
				{
					"attributes":{
						"POSITION":6,
						"NORMAL":7
					},
					"indices":8
				}
			]
		},
		{
			"name":"COL_004_StairRamp",
			"primitives":[
				{
					"attributes":{
						"POSITION":9,
						"NORMAL":10
					},
					"indices":11
				}
			]
		},
		{
			"name":"COL_005_StairRamp",
			"primitives":[
				{
					"attributes":{
						"POSITION":12,
						"NORMAL":13
					},
					"indices":14
				}
			]
		},
		{
			"name":"COL_006_StairRamp",
			"primitives":[
				{
					"attributes":{
						"POSITION":15,
						"NORMAL":16
					},
					"indices":17
				}
			]
		},
		{
			"name":"COL_007_StairRamp",
			"primitives":[
				{
					"attributes":{
						"POSITION":18,
						"NORMAL":19
					},
					"indices":14
				}
			]
		},
		{
			"name":"COL_008_House",
			"primitives":[
				{
					"attributes":{
						"POSITION":20,
						"NORMAL":21
					},
					"indices":22
				}
			]
		},
		{
			"name":"COL_009_House",
			"primitives":[
				{
					"attributes":{
						"POSITION":23,
						"NORMAL":24
					},
					"indices":25
				}
			]
		},
		{
			"name":"COL_010_House",
			"primitives":[
				{
					"attributes":{
						"POSITION":26,
						"NORMAL":27
					},
					"indices":25
				}
			]
		},
		{
			"name":"COL_011_House",
			"primitives":[
				{
					"attributes":{
						"POSITION":28,
						"NORMAL":29
					},
					"indices":25
				}
			]
		},
		{
			"name":"COL_012_House",
			"primitives":[
				{
					"attributes":{
						"POSITION":30,
						"NORMAL":31
					},
					"indices":25
				}
			]
		},
		{
			"name":"COL_013_House",
			"primitives":[
				{
					"attributes":{
						"POSITION":32,
						"NORMAL":33
					},
					"indices":22
				}
			]
		},
		{
			"name":"COL_014_Dock",
			"primitives":[
				{
					"attributes":{
						"POSITION":34,
						"NORMAL":35
					},
					"indices":17
				}
			]
		},
		{
			"name":"COL_015_Dock",
			"primitives":[
				{
					"attributes":{
						"POSITION":36,
						"NORMAL":37
					},
					"indices":17
				}
			]
		},
		{
			"name":"COL_016_Dock",
			"primitives":[
				{
					"attributes":{
						"POSITION":38,
						"NORMAL":39
					},
					"indices":17
				}
			]
		},
		{
			"name":"COL_017_Dock",
			"primitives":[
				{
					"attributes":{
						"POSITION":40,
						"NORMAL":41
					},
					"indices":17
				}
			]
		}
	],
	"accessors":[
		{
			"bufferView":0,
			"componentType":5126,
			"count":66,
			"max":[
				34,
				1.399999976158142,
				25
			],
			"min":[
				-13,
				-2.4000000953674316,
				-29
			],
			"type":"VEC3"
		},
		{
			"bufferView":1,
			"componentType":5126,
			"count":66,
			"type":"VEC3"
		},
		{
			"bufferView":2,
			"componentType":5123,
			"count":120,
			"type":"SCALAR"
		},
		{
			"bufferView":3,
			"componentType":5126,
			"count":192,
			"max":[
				23,
				4.21999979019165,
				9
			],
			"min":[
				-5,
				1.4299999475479126,
				-11
			],
			"type":"VEC3"
		},
		{
			"bufferView":4,
			"componentType":5126,
			"count":192,
			"type":"VEC3"
		},
		{
			"bufferView":5,
			"componentType":5123,
			"count":372,
			"type":"SCALAR"
		},
		{
			"bufferView":6,
			"componentType":5126,
			"count":36,
			"max":[
				28,
				7.519999980926514,
				-16
			],
			"min":[
				-8,
				1.4299999475479126,
				-28
			],
			"type":"VEC3"
		},
		{
			"bufferView":7,
			"componentType":5126,
			"count":36,
			"type":"VEC3"
		},
		{
			"bufferView":8,
			"componentType":5123,
			"count":60,
			"type":"SCALAR"
		},
		{
			"bufferView":9,
			"componentType":5126,
			"count":24,
			"max":[
				-2.269257068634033,
				4.25,
				13.494498252868652
			],
			"min":[
				-7.730742931365967,
				1.2699999809265137,
				5.505502223968506
			],
			"type":"VEC3"
		},
		{
			"bufferView":10,
			"componentType":5126,
			"count":24,
			"type":"VEC3"
		},
		{
			"bufferView":11,
			"componentType":5123,
			"count":36,
			"type":"SCALAR"
		},
		{
			"bufferView":12,
			"componentType":5126,
			"count":24,
			"max":[
				26.562837600708008,
				4.25,
				8.893050193786621
			],
			"min":[
				19.437162399291992,
				1.2699999809265137,
				0.10694992542266846
			],
			"type":"VEC3"
		},
		{
			"bufferView":13,
			"componentType":5126,
			"count":24,
			"type":"VEC3"
		},
		{
			"bufferView":14,
			"componentType":5123,
			"count":36,
			"type":"SCALAR"
		},
		{
			"bufferView":15,
			"componentType":5126,
			"count":24,
			"max":[
				10,
				7.550000190734863,
				-8
			],
			"min":[
				6,
				4.050000190734863,
				-17
			],
			"type":"VEC3"
		},
		{
			"bufferView":16,
			"componentType":5126,
			"count":24,
			"type":"VEC3"
		},
		{
			"bufferView":17,
			"componentType":5123,
			"count":36,
			"type":"SCALAR"
		},
		{
			"bufferView":18,
			"componentType":5126,
			"count":24,
			"max":[
				30.785608291625977,
				7.550000190734863,
				-4.3506879806518555
			],
			"min":[
				23.214391708374023,
				1.2699999809265137,
				-16.649311065673828
			],
			"type":"VEC3"
		},
		{
			"bufferView":19,
			"componentType":5126,
			"count":24,
			"type":"VEC3"
		},
		{
			"bufferView":20,
			"componentType":5126,
			"count":24,
			"max":[
				-0.9328265190124512,
				14.220000267028809,
				-18.28206443786621
			],
			"min":[
				-7.067173480987549,
				7.519999980926514,
				-23.71793556213379
			],
			"type":"VEC3"
		},
		{
			"bufferView":21,
			"componentType":5126,
			"count":24,
			"type":"VEC3"
		},
		{
			"bufferView":22,
			"componentType":5123,
			"count":36,
			"type":"SCALAR"
		},
		{
			"bufferView":23,
			"componentType":5126,
			"count":24,
			"max":[
				5.697466850280762,
				13.220000267028809,
				-19.547483444213867
			],
			"min":[
				0.30253317952156067,
				7.519999980926514,
				-24.452516555786133
			],
			"type":"VEC3"
		},
		{
			"bufferView":24,
			"componentType":5126,
			"count":24,
			"type":"VEC3"
		},
		{
			"bufferView":25,
			"componentType":5123,
			"count":36,
			"type":"SCALAR"
		},
		{
			"bufferView":26,
			"componentType":5126,
			"count":24,
			"max":[
				13.297347068786621,
				14.619999885559082,
				-19.535484313964844
			],
			"min":[
				6.702653408050537,
				7.519999980926514,
				-24.464515686035156
			],
			"type":"VEC3"
		},
		{
			"bufferView":27,
			"componentType":5126,
			"count":24,
			"type":"VEC3"
		},
		{
			"bufferView":28,
			"componentType":5126,
			"count":24,
			"max":[
				21.07777214050293,
				13.720000267028809,
				-18.215993881225586
			],
			"min":[
				14.92222785949707,
				7.519999980926514,
				-23.784006118774414
			],
			"type":"VEC3"
		},
		{
			"bufferView":29,
			"componentType":5126,
			"count":24,
			"type":"VEC3"
		},
		{
			"bufferView":30,
			"componentType":5126,
			"count":24,
			"max":[
				28.258304595947266,
				13.319999694824219,
				-15.325357437133789
			],
			"min":[
				21.741695404052734,
				7.519999980926514,
				-21.67464256286621
			],
			"type":"VEC3"
		},
		{
			"bufferView":31,
			"componentType":5126,
			"count":24,
			"type":"VEC3"
		},
		{
			"bufferView":32,
			"componentType":5126,
			"count":24,
			"max":[
				-5.966167449951172,
				4.300000190734863,
				-10.050100326538086
			],
			"min":[
				-10.033832550048828,
				1.399999976158142,
				-13.949899673461914
			],
			"type":"VEC3"
		},
		{
			"bufferView":33,
			"componentType":5126,
			"count":24,
			"type":"VEC3"
		},
		{
			"bufferView":34,
			"componentType":5126,
			"count":24,
			"max":[
				-10,
				1.350000023841858,
				18
			],
			"min":[
				-29,
				1.0499999523162842,
				14
			],
			"type":"VEC3"
		},
		{
			"bufferView":35,
			"componentType":5126,
			"count":24,
			"type":"VEC3"
		},
		{
			"bufferView":36,
			"componentType":5126,
			"count":24,
			"max":[
				-10,
				1.350000023841858,
				6
			],
			"min":[
				-30,
				1.0499999523162842,
				2
			],
			"type":"VEC3"
		},
		{
			"bufferView":37,
			"componentType":5126,
			"count":24,
			"type":"VEC3"
		},
		{
			"bufferView":38,
			"componentType":5126,
			"count":24,
			"max":[
				-10,
				1.350000023841858,
				-8
			],
			"min":[
				-27,
				1.0499999523162842,
				-12
			],
			"type":"VEC3"
		},
		{
			"bufferView":39,
			"componentType":5126,
			"count":24,
			"type":"VEC3"
		},
		{
			"bufferView":40,
			"componentType":5126,
			"count":24,
			"max":[
				-10,
				1.350000023841858,
				-18
			],
			"min":[
				-23,
				1.0499999523162842,
				-22
			],
			"type":"VEC3"
		},
		{
			"bufferView":41,
			"componentType":5126,
			"count":24,
			"type":"VEC3"
		}
	],
	"bufferViews":[
		{
			"buffer":0,
			"byteLength":792,
			"byteOffset":0,
			"target":34962
		},
		{
			"buffer":0,
			"byteLength":792,
			"byteOffset":792,
			"target":34962
		},
		{
			"buffer":0,
			"byteLength":240,
			"byteOffset":1584,
			"target":34963
		},
		{
			"buffer":0,
			"byteLength":2304,
			"byteOffset":1824,
			"target":34962
		},
		{
			"buffer":0,
			"byteLength":2304,
			"byteOffset":4128,
			"target":34962
		},
		{
			"buffer":0,
			"byteLength":744,
			"byteOffset":6432,
			"target":34963
		},
		{
			"buffer":0,
			"byteLength":432,
			"byteOffset":7176,
			"target":34962
		},
		{
			"buffer":0,
			"byteLength":432,
			"byteOffset":7608,
			"target":34962
		},
		{
			"buffer":0,
			"byteLength":120,
			"byteOffset":8040,
			"target":34963
		},
		{
			"buffer":0,
			"byteLength":288,
			"byteOffset":8160,
			"target":34962
		},
		{
			"buffer":0,
			"byteLength":288,
			"byteOffset":8448,
			"target":34962
		},
		{
			"buffer":0,
			"byteLength":72,
			"byteOffset":8736,
			"target":34963
		},
		{
			"buffer":0,
			"byteLength":288,
			"byteOffset":8808,
			"target":34962
		},
		{
			"buffer":0,
			"byteLength":288,
			"byteOffset":9096,
			"target":34962
		},
		{
			"buffer":0,
			"byteLength":72,
			"byteOffset":9384,
			"target":34963
		},
		{
			"buffer":0,
			"byteLength":288,
			"byteOffset":9456,
			"target":34962
		},
		{
			"buffer":0,
			"byteLength":288,
			"byteOffset":9744,
			"target":34962
		},
		{
			"buffer":0,
			"byteLength":72,
			"byteOffset":10032,
			"target":34963
		},
		{
			"buffer":0,
			"byteLength":288,
			"byteOffset":10104,
			"target":34962
		},
		{
			"buffer":0,
			"byteLength":288,
			"byteOffset":10392,
			"target":34962
		},
		{
			"buffer":0,
			"byteLength":288,
			"byteOffset":10680,
			"target":34962
		},
		{
			"buffer":0,
			"byteLength":288,
			"byteOffset":10968,
			"target":34962
		},
		{
			"buffer":0,
			"byteLength":72,
			"byteOffset":11256,
			"target":34963
		},
		{
			"buffer":0,
			"byteLength":288,
			"byteOffset":11328,
			"target":34962
		},
		{
			"buffer":0,
			"byteLength":288,
			"byteOffset":11616,
			"target":34962
		},
		{
			"buffer":0,
			"byteLength":72,
			"byteOffset":11904,
			"target":34963
		},
		{
			"buffer":0,
			"byteLength":288,
			"byteOffset":11976,
			"target":34962
		},
		{
			"buffer":0,
			"byteLength":288,
			"byteOffset":12264,
			"target":34962
		},
		{
			"buffer":0,
			"byteLength":288,
			"byteOffset":12552,
			"target":34962
		},
		{
			"buffer":0,
			"byteLength":288,
			"byteOffset":12840,
			"target":34962
		},
		{
			"buffer":0,
			"byteLength":288,
			"byteOffset":13128,
			"target":34962
		},
		{
			"buffer":0,
			"byteLength":288,
			"byteOffset":13416,
			"target":34962
		},
		{
			"buffer":0,
			"byteLength":288,
			"byteOffset":13704,
			"target":34962
		},
		{
			"buffer":0,
			"byteLength":288,
			"byteOffset":13992,
			"target":34962
		},
		{
			"buffer":0,
			"byteLength":288,
			"byteOffset":14280,
			"target":34962
		},
		{
			"buffer":0,
			"byteLength":288,
			"byteOffset":14568,
			"target":34962
		},
		{
			"buffer":0,
			"byteLength":288,
			"byteOffset":14856,
			"target":34962
		},
		{
			"buffer":0,
			"byteLength":288,
			"byteOffset":15144,
			"target":34962
		},
		{
			"buffer":0,
			"byteLength":288,
			"byteOffset":15432,
			"target":34962
		},
		{
			"buffer":0,
			"byteLength":288,
			"byteOffset":15720,
			"target":34962
		},
		{
			"buffer":0,
			"byteLength":288,
			"byteOffset":16008,
			"target":34962
		},
		{
			"buffer":0,
			"byteLength":288,
			"byteOffset":16296,
			"target":34962
		}
	],
	"buffers":[
		{
			"byteLength":16584,
			"uri":"MarketHarbor_Collision.bin"
		}
	]
}
