{
	"asset":{
		"generator":"Khronos glTF Blender I/O v5.2.40",
		"version":"2.0"
	},
	"scene":0,
	"scenes":[
		{
			"name":"Scene",
			"nodes":[
				21
			]
		}
	],
	"nodes":[
		{
			"extras":{
				"flat_shaded":true
			},
			"mesh":0,
			"name":"Awnings"
		},
		{
			"extras":{
				"flat_shaded":true
			},
			"mesh":1,
			"name":"Buildings"
		},
		{
			"extras":{
				"flat_shaded":true
			},
			"mesh":2,
			"name":"Crane"
		},
		{
			"extras":{
				"flat_shaded":true
			},
			"mesh":3,
			"name":"Details"
		},
		{
			"extras":{
				"flat_shaded":true
			},
			"mesh":4,
			"name":"Docks"
		},
		{
			"extras":{
				"flat_shaded":true
			},
			"mesh":5,
			"name":"Fountain"
		},
		{
			"extras":{
				"flat_shaded":true
			},
			"mesh":6,
			"name":"FountainWater"
		},
		{
			"extras":{
				"flat_shaded":true
			},
			"mesh":7,
			"name":"Goods"
		},
		{
			"extras":{
				"flat_shaded":true
			},
			"mesh":8,
			"name":"Market"
		},
		{
			"extras":{
				"flat_shaded":true
			},
			"mesh":9,
			"name":"Palms"
		},
		{
			"extras":{
				"flat_shaded":true
			},
			"mesh":10,
			"name":"Paving"
		},
		{
			"extras":{
				"flat_shaded":true
			},
			"mesh":11,
			"name":"Props"
		},
		{
			"extras":{
				"flat_shaded":true
			},
			"mesh":12,
			"name":"Rigging"
		},
		{
			"extras":{
				"flat_shaded":true
			},
			"mesh":13,
			"name":"Rocks"
		},
		{
			"extras":{
				"flat_shaded":true
			},
			"mesh":14,
			"name":"Roofs"
		},
		{
			"extras":{
				"flat_shaded":true
			},
			"mesh":15,
			"name":"Ships"
		},
		{
			"extras":{
				"flat_shaded":true
			},
			"mesh":16,
			"name":"Stairs"
		},
		{
			"extras":{
				"flat_shaded":true
			},
			"mesh":17,
			"name":"Statues"
		},
		{
			"extras":{
				"flat_shaded":true
			},
			"mesh":18,
			"name":"Terraces"
		},
		{
			"extras":{
				"flat_shaded":true
			},
			"mesh":19,
			"name":"Terrain"
		},
		{
			"extras":{
				"flat_shaded":true
			},
			"mesh":20,
			"name":"Timber"
		},
		{
			"children":[
				0,
				1,
				2,
				3,
				4,
				5,
				6,
				7,
				8,
				9,
				10,
				11,
				12,
				13,
				14,
				15,
				16,
				17,
				18,
				19,
				20
			],
			"extras":{
				"units":"metres",
				"reference_note":"Visible proportions reconstructed; hidden sides inferred.",
				"visual_triangles":24984,
				"collision_objects":17
			},
			"name":"ReferenceMarketHarbor"
		}
	],
	"materials":[
		{
			"doubleSided":true,
			"name":"ReferenceMarketHarbor_red",
			"pbrMetallicRoughness":{
				"baseColorFactor":[
					0.43965718150138855,
					0.15896083414554596,
					0.11953842639923096,
					1
				],
				"metallicFactor":0,
				"roughnessFactor":0.8700000047683716
			}
		},
		{
			"doubleSided":true,
			"name":"ReferenceMarketHarbor_blue",
			"pbrMetallicRoughness":{
				"baseColorFactor":[
					0.13286831974983215,
					0.2622506618499756,
					0.33716362714767456,
					1
				],
				"metallicFactor":0,
				"roughnessFactor":0.8700000047683716
			}
		},
		{
			"doubleSided":true,
			"name":"ReferenceMarketHarbor_yellow",
			"pbrMetallicRoughness":{
				"baseColorFactor":[
					0.5088813304901123,
					0.41788506507873535,
					0.13013647496700287,
					1
				],
				"metallicFactor":0,
				"roughnessFactor":0.8700000047683716
			}
		},
		{
			"doubleSided":true,
			"name":"ReferenceMarketHarbor_purple",
			"pbrMetallicRoughness":{
				"baseColorFactor":[
					0.3049873113632202,
					0.1946178376674652,
					0.34191441535949707,
					1
				],
				"metallicFactor":0,
				"roughnessFactor":0.8700000047683716
			}
		},
		{
			"doubleSided":true,
			"name":"ReferenceMarketHarbor_cream",
			"pbrMetallicRoughness":{
				"baseColorFactor":[
					0.6583748459815979,
					0.5394794940948486,
					0.3324515223503113,
					1
				],
				"metallicFactor":0,
				"roughnessFactor":0.8700000047683716
			}
		},
		{
			"doubleSided":true,
			"name":"ReferenceMarketHarbor_green",
			"pbrMetallicRoughness":{
				"baseColorFactor":[
					0.18447498977184296,
					0.2917706370353699,
					0.14702726900577545,
					1
				],
				"metallicFactor":0,
				"roughnessFactor":0.8700000047683716
			}
		},
		{
			"doubleSided":true,
			"name":"ReferenceMarketHarbor_stone",
			"pbrMetallicRoughness":{
				"baseColorFactor":[
					0.2917706370353699,
					0.30054378509521484,
					0.2541520893573761,
					1
				],
				"metallicFactor":0,
				"roughnessFactor":0.8700000047683716
			}
		},
		{
			"doubleSided":true,
			"name":"ReferenceMarketHarbor_plaster",
			"pbrMetallicRoughness":{
				"baseColorFactor":[
					0.5647115111351013,
					0.46207699179649353,
					0.27049779891967773,
					1
				],
				"metallicFactor":0,
				"roughnessFactor":0.8700000047683716
			}
		},
		{
			"doubleSided":true,
			"name":"ReferenceMarketHarbor_trim",
			"pbrMetallicRoughness":{
				"baseColorFactor":[
					0.13286831974983215,
					0.0802198201417923,
					0.045186202973127365,
					1
				],
				"metallicFactor":0,
				"roughnessFactor":0.8700000047683716
			}
		},
		{
			"doubleSided":true,
			"name":"ReferenceMarketHarbor_wood",
			"pbrMetallicRoughness":{
				"baseColorFactor":[
					0.3049873113632202,
					0.16202937066555023,
					0.07421357184648514,
					1
				],
				"metallicFactor":0,
				"roughnessFactor":0.8700000047683716
			}
		},
		{
			"doubleSided":true,
			"name":"ReferenceMarketHarbor_dark",
			"pbrMetallicRoughness":{
				"baseColorFactor":[
					0.03433980792760849,
					0.04666508734226227,
					0.040915198624134064,
					1
				],
				"metallicFactor":0,
				"roughnessFactor":0.8700000047683716
			}
		},
		{
			"doubleSided":true,
			"name":"ReferenceMarketHarbor_water",
			"pbrMetallicRoughness":{
				"baseColorFactor":[
					0.15292614698410034,
					0.32314321398735046,
					0.34191441535949707,
					1
				],
				"metallicFactor":0,
				"roughnessFactor":0.8700000047683716
			}
		},
		{
			"doubleSided":true,
			"name":"ReferenceMarketHarbor_leaf",
			"pbrMetallicRoughness":{
				"baseColorFactor":[
					0.2158605009317398,
					0.31854677200317383,
					0.0802198201417923,
					1
				],
				"metallicFactor":0,
				"roughnessFactor":0.8700000047683716
			}
		},
		{
			"doubleSided":true,
			"name":"ReferenceMarketHarbor_leaf_light",
			"pbrMetallicRoughness":{
				"baseColorFactor":[
					0.35153260827064514,
					0.41788506507873535,
					0.12743768095970154,
					1
				],
				"metallicFactor":0,
				"roughnessFactor":0.8700000047683716
			}
		},
		{
			"doubleSided":true,
			"name":"ReferenceMarketHarbor_roof",
			"pbrMetallicRoughness":{
				"baseColorFactor":[
					0.22322796285152435,
					0.11697066575288773,
					0.05780543014407158,
					1
				],
				"metallicFactor":0,
				"roughnessFactor":0.8700000047683716
			}
		},
		{
			"doubleSided":true,
			"name":"ReferenceMarketHarbor_sand",
			"pbrMetallicRoughness":{
				"baseColorFactor":[
					0.44520118832588196,
					0.35640013217926025,
					0.1946178376674652,
					1
				],
				"metallicFactor":0,
				"roughnessFactor":0.8700000047683716
			}
		},
		{
			"doubleSided":true,
			"name":"ReferenceMarketHarbor_earth",
			"pbrMetallicRoughness":{
				"baseColorFactor":[
					0.17464740574359894,
					0.09305896610021591,
					0.05126945674419403,
					1
				],
				"metallicFactor":0,
				"roughnessFactor":0.8700000047683716
			}
		},
		{
			"doubleSided":true,
			"name":"ReferenceMarketHarbor_grass",
			"pbrMetallicRoughness":{
				"baseColorFactor":[
					0.24228112399578094,
					0.30054378509521484,
					0.09530746936798096,
					1
				],
				"metallicFactor":0,
				"roughnessFactor":0.8700000047683716
			}
		}
	],
	"meshes":[
		{
			"name":"ReferenceMarketHarbor_Awnings",
			"primitives":[
				{
					"attributes":{
						"POSITION":0,
						"NORMAL":1
					},
					"indices":2,
					"material":0
				},
				{
					"attributes":{
						"POSITION":3,
						"NORMAL":4
					},
					"indices":5,
					"material":1
				},
				{
					"attributes":{
						"POSITION":6,
						"NORMAL":7
					},
					"indices":8,
					"material":2
				},
				{
					"attributes":{
						"POSITION":9,
						"NORMAL":10
					},
					"indices":11,
					"material":3
				},
				{
					"attributes":{
						"POSITION":12,
						"NORMAL":13
					},
					"indices":14,
					"material":4
				},
				{
					"attributes":{
						"POSITION":15,
						"NORMAL":16
					},
					"indices":17,
					"material":5
				}
			]
		},
		{
			"name":"ReferenceMarketHarbor_Buildings",
			"primitives":[
				{
					"attributes":{
						"POSITION":18,
						"NORMAL":19
					},
					"indices":20,
					"material":6
				},
				{
					"attributes":{
						"POSITION":21,
						"NORMAL":22
					},
					"indices":23,
					"material":7
				}
			]
		},
		{
			"name":"ReferenceMarketHarbor_Crane",
			"primitives":[
				{
					"attributes":{
						"POSITION":24,
						"NORMAL":25
					},
					"indices":26,
					"material":8
				},
				{
					"attributes":{
						"POSITION":27,
						"NORMAL":28
					},
					"indices":29,
					"material":9
				},
				{
					"attributes":{
						"POSITION":30,
						"NORMAL":31
					},
					"indices":32,
					"material":10
				}
			]
		},
		{
			"name":"ReferenceMarketHarbor_Details",
			"primitives":[
				{
					"attributes":{
						"POSITION":33,
						"NORMAL":34
					},
					"indices":20,
					"material":6
				},
				{
					"attributes":{
						"POSITION":35,
						"NORMAL":36
					},
					"indices":37,
					"material":8
				},
				{
					"attributes":{
						"POSITION":38,
						"NORMAL":39
					},
					"indices":20,
					"material":9
				},
				{
					"attributes":{
						"POSITION":40,
						"NORMAL":41
					},
					"indices":42,
					"material":10
				}
			]
		},
		{
			"name":"ReferenceMarketHarbor_Docks",
			"primitives":[
				{
					"attributes":{
						"POSITION":43,
						"NORMAL":44
					},
					"indices":45,
					"material":9
				}
			]
		},
		{
			"name":"ReferenceMarketHarbor_Fountain",
			"primitives":[
				{
					"attributes":{
						"POSITION":46,
						"NORMAL":47
					},
					"indices":48,
					"material":6
				}
			]
		},
		{
			"name":"ReferenceMarketHarbor_FountainWater",
			"primitives":[
				{
					"attributes":{
						"POSITION":49,
						"NORMAL":50
					},
					"indices":51,
					"material":11
				}
			]
		},
		{
			"name":"ReferenceMarketHarbor_Goods",
			"primitives":[
				{
					"attributes":{
						"POSITION":52,
						"NORMAL":53
					},
					"indices":54,
					"material":0
				},
				{
					"attributes":{
						"POSITION":55,
						"NORMAL":56
					},
					"indices":57,
					"material":2
				},
				{
					"attributes":{
						"POSITION":58,
						"NORMAL":59
					},
					"indices":60,
					"material":5
				}
			]
		},
		{
			"name":"ReferenceMarketHarbor_Market",
			"primitives":[
				{
					"attributes":{
						"POSITION":61,
						"NORMAL":62
					},
					"indices":63,
					"material":8
				},
				{
					"attributes":{
						"POSITION":64,
						"NORMAL":65
					},
					"indices":66,
					"material":9
				}
			]
		},
		{
			"name":"ReferenceMarketHarbor_Palms",
			"primitives":[
				{
					"attributes":{
						"POSITION":67,
						"NORMAL":68
					},
					"indices":69,
					"material":9
				},
				{
					"attributes":{
						"POSITION":70,
						"NORMAL":71
					},
					"indices":72,
					"material":12
				},
				{
					"attributes":{
						"POSITION":73,
						"NORMAL":74
					},
					"indices":75,
					"material":13
				}
			]
		},
		{
			"name":"ReferenceMarketHarbor_Paving",
			"primitives":[
				{
					"attributes":{
						"POSITION":76,
						"NORMAL":77
					},
					"indices":78,
					"material":6
				}
			]
		},
		{
			"name":"ReferenceMarketHarbor_Props",
			"primitives":[
				{
					"attributes":{
						"POSITION":79,
						"NORMAL":80
					},
					"indices":81,
					"material":8
				},
				{
					"attributes":{
						"POSITION":82,
						"NORMAL":83
					},
					"indices":84,
					"material":9
				},
				{
					"attributes":{
						"POSITION":85,
						"NORMAL":86
					},
					"indices":87,
					"material":10
				},
				{
					"attributes":{
						"POSITION":88,
						"NORMAL":89
					},
					"indices":90,
					"material":0
				},
				{
					"attributes":{
						"POSITION":91,
						"NORMAL":92
					},
					"indices":93,
					"material":2
				},
				{
					"attributes":{
						"POSITION":94,
						"NORMAL":95
					},
					"indices":90,
					"material":5
				}
			]
		},
		{
			"name":"ReferenceMarketHarbor_Rigging",
			"primitives":[
				{
					"attributes":{
						"POSITION":96,
						"NORMAL":97
					},
					"indices":98,
					"material":8
				},
				{
					"attributes":{
						"POSITION":99,
						"NORMAL":100
					},
					"indices":101,
					"material":9
				},
				{
					"attributes":{
						"POSITION":102,
						"NORMAL":103
					},
					"indices":104,
					"material":10
				}
			]
		},
		{
			"name":"ReferenceMarketHarbor_Rocks",
			"primitives":[
				{
					"attributes":{
						"POSITION":105,
						"NORMAL":106
					},
					"indices":107,
					"material":6
				}
			]
		},
		{
			"name":"ReferenceMarketHarbor_Roofs",
			"primitives":[
				{
					"attributes":{
						"POSITION":108,
						"NORMAL":109
					},
					"indices":110,
					"material":14
				}
			]
		},
		{
			"name":"ReferenceMarketHarbor_Ships",
			"primitives":[
				{
					"attributes":{
						"POSITION":111,
						"NORMAL":112
					},
					"indices":113,
					"material":9
				},
				{
					"attributes":{
						"POSITION":114,
						"NORMAL":115
					},
					"indices":116,
					"material":7
				},
				{
					"attributes":{
						"POSITION":117,
						"NORMAL":118
					},
					"indices":116,
					"material":10
				},
				{
					"attributes":{
						"POSITION":119,
						"NORMAL":120
					},
					"indices":116,
					"material":1
				},
				{
					"attributes":{
						"POSITION":121,
						"NORMAL":122
					},
					"indices":123,
					"material":4
				}
			]
		},
		{
			"name":"ReferenceMarketHarbor_Stairs",
			"primitives":[
				{
					"attributes":{
						"POSITION":124,
						"NORMAL":125
					},
					"indices":126,
					"material":6
				}
			]
		},
		{
			"name":"ReferenceMarketHarbor_Statues",
			"primitives":[
				{
					"attributes":{
						"POSITION":127,
						"NORMAL":128
					},
					"indices":129,
					"material":6
				}
			]
		},
		{
			"name":"ReferenceMarketHarbor_Terraces",
			"primitives":[
				{
					"attributes":{
						"POSITION":130,
						"NORMAL":131
					},
					"indices":132,
					"material":15
				},
				{
					"attributes":{
						"POSITION":133,
						"NORMAL":134
					},
					"indices":135,
					"material":6
				}
			]
		},
		{
			"name":"ReferenceMarketHarbor_Terrain",
			"primitives":[
				{
					"attributes":{
						"POSITION":136,
						"NORMAL":137
					},
					"indices":138,
					"material":16
				},
				{
					"attributes":{
						"POSITION":139,
						"NORMAL":140
					},
					"indices":141,
					"material":17
				}
			]
		},
		{
			"name":"ReferenceMarketHarbor_Timber",
			"primitives":[
				{
					"attributes":{
						"POSITION":142,
						"NORMAL":143
					},
					"indices":144,
					"material":8
				}
			]
		}
	],
	"accessors":[
		{
			"bufferView":0,
			"componentType":5126,
			"count":192,
			"max":[
				4.746673583984375,
				7.769999980926514,
				18.419252395629883
			],
			"min":[
				-1.159447193145752,
				4.190000057220459,
				-6.997931957244873
			],
			"type":"VEC3"
		},
		{
			"bufferView":1,
			"componentType":5126,
			"count":192,
			"type":"VEC3"
		},
		{
			"bufferView":2,
			"componentType":5123,
			"count":288,
			"type":"SCALAR"
		},
		{
			"bufferView":3,
			"componentType":5126,
			"count":192,
			"max":[
				31.410852432250977,
				4.949999809265137,
				14.710867881774902
			],
			"min":[
				-7.521069526672363,
				4.190000057220459,
				-3.786470413208008
			],
			"type":"VEC3"
		},
		{
			"bufferView":4,
			"componentType":5126,
			"count":192,
			"type":"VEC3"
		},
		{
			"bufferView":5,
			"componentType":5123,
			"count":288,
			"type":"SCALAR"
		},
		{
			"bufferView":6,
			"componentType":5126,
			"count":192,
			"max":[
				22.948776245117188,
				7.769999980926514,
				16.43386459350586
			],
			"min":[
				12.976945877075195,
				4.190000057220459,
				-6.866377353668213
			],
			"type":"VEC3"
		},
		{
			"bufferView":7,
			"componentType":5126,
			"count":192,
			"type":"VEC3"
		},
		{
			"bufferView":8,
			"componentType":5123,
			"count":288,
			"type":"SCALAR"
		},
		{
			"bufferView":9,
			"componentType":5126,
			"count":288,
			"max":[
				29.230667114257812,
				7.769999980926514,
				10.438812255859375
			],
			"min":[
				-12.491950035095215,
				4.190000057220459,
				-3.333833932876587
			],
			"type":"VEC3"
		},
		{
			"bufferView":10,
			"componentType":5126,
			"count":288,
			"type":"VEC3"
		},
		{
			"bufferView":11,
			"componentType":5123,
			"count":432,
			"type":"SCALAR"
		},
		{
			"bufferView":12,
			"componentType":5126,
			"count":792,
			"max":[
				31.384685516357422,
				7.769999980926514,
				18.830509185791016
			],
			"min":[
				-12.312766075134277,
				4.190000057220459,
				-7.550000190734863
			],
			"type":"VEC3"
		},
		{
			"bufferView":13,
			"componentType":5126,
			"count":792,
			"type":"VEC3"
		},
		{
			"bufferView":14,
			"componentType":5123,
			"count":1188,
			"type":"SCALAR"
		},
		{
			"bufferView":15,
			"componentType":5126,
			"count":192,
			"max":[
				13.843487739562988,
				7.769999980926514,
				18.900094985961914
			],
			"min":[
				5.25,
				4.190000057220459,
				-7.550000190734863
			],
			"type":"VEC3"
		},
		{
			"bufferView":16,
			"componentType":5126,
			"count":192,
			"type":"VEC3"
		},
		{
			"bufferView":17,
			"componentType":5123,
			"count":288,
			"type":"SCALAR"
		},
		{
			"bufferView":18,
			"componentType":5126,
			"count":144,
			"max":[
				28.355772018432617,
				8.760000228881836,
				-9.96473503112793
			],
			"min":[
				-10.1191987991333,
				1.399999976158142,
				-24.541000366210938
			],
			"type":"VEC3"
		},
		{
			"bufferView":19,
			"componentType":5126,
			"count":144,
			"type":"VEC3"
		},
		{
			"bufferView":20,
			"componentType":5123,
			"count":216,
			"type":"SCALAR"
		},
		{
			"bufferView":21,
			"componentType":5126,
			"count":180,
			"max":[
				28.258304595947266,
				16.719999313354492,
				-10.050100326538086
			],
			"min":[
				-10.033832550048828,
				1.399999976158142,
				-24.464515686035156
			],
			"type":"VEC3"
		},
		{
			"bufferView":22,
			"componentType":5126,
			"count":180,
			"type":"VEC3"
		},
		{
			"bufferView":23,
			"componentType":5123,
			"count":288,
			"type":"SCALAR"
		},
		{
			"bufferView":24,
			"componentType":5126,
			"count":72,
			"max":[
				-21.799999237060547,
				7,
				2.1732051372528076
			],
			"min":[
				-25.200000762939453,
				1.399999976158142,
				1.8267948627471924
			],
			"type":"VEC3"
		},
		{
			"bufferView":25,
			"componentType":5126,
			"count":72,
			"type":"VEC3"
		},
		{
			"bufferView":26,
			"componentType":5123,
			"count":120,
			"type":"SCALAR"
		},
		{
			"bufferView":27,
			"componentType":5126,
			"count":36,
			"max":[
				-19,
				7.290525436401367,
				2.2200000286102295
			],
			"min":[
				-26,
				6.9094743728637695,
				1.7799999713897705
			],
			"type":"VEC3"
		},
		{
			"bufferView":28,
			"componentType":5126,
			"count":36,
			"type":"VEC3"
		},
		{
			"bufferView":29,
			"componentType":5123,
			"count":60,
			"type":"SCALAR"
		},
		{
			"bufferView":30,
			"componentType":5126,
			"count":24,
			"max":[
				-22.969999313354492,
				7,
				2.0299999713897705
			],
			"min":[
				-23.030000686645508,
				3.0999999046325684,
				1.9700000286102295
			],
			"type":"VEC3"
		},
		{
			"bufferView":31,
			"componentType":5126,
			"count":24,
			"type":"VEC3"
		},
		{
			"bufferView":32,
			"componentType":5123,
			"count":36,
			"type":"SCALAR"
		},
		{
			"bufferView":33,
			"componentType":5126,
			"count":144,
			"max":[
				26.422611236572266,
				16.6200008392334,
				-12.054694175720215
			],
			"min":[
				-7.262142181396484,
				4.5,
				-23.183168411254883
			],
			"type":"VEC3"
		},
		{
			"bufferView":34,
			"componentType":5126,
			"count":144,
			"type":"VEC3"
		},
		{
			"bufferView":35,
			"componentType":5126,
			"count":2112,
			"max":[
				27.74925994873047,
				14.600000381469727,
				-9.848187446594238
			],
			"min":[
				-9.771595001220703,
				4.769999980926514,
				-19.49610710144043
			],
			"type":"VEC3"
		},
		{
			"bufferView":36,
			"componentType":5126,
			"count":2112,
			"type":"VEC3"
		},
		{
			"bufferView":37,
			"componentType":5123,
			"count":3168,
			"type":"SCALAR"
		},
		{
			"bufferView":38,
			"componentType":5126,
			"count":144,
			"max":[
				25.44528579711914,
				9.920000076293945,
				-10.183425903320312
			],
			"min":[
				-9.631099700927734,
				1.7000000476837158,
				-19.558666229248047
			],
			"type":"VEC3"
		},
		{
			"bufferView":39,
			"componentType":5126,
			"count":144,
			"type":"VEC3"
		},
		{
			"bufferView":40,
			"componentType":5126,
			"count":528,
			"max":[
				27.626718521118164,
				14.545000076293945,
				-9.942233085632324
			],
			"min":[
				-9.660762786865234,
				4.824999809265137,
				-19.61408233642578
			],
			"type":"VEC3"
		},
		{
			"bufferView":41,
			"componentType":5126,
			"count":528,
			"type":"VEC3"
		},
		{
			"bufferView":42,
			"componentType":5123,
			"count":792,
			"type":"SCALAR"
		},
		{
			"bufferView":43,
			"componentType":5126,
			"count":5544,
			"max":[
				-9.8100004196167,
				1.850000023841858,
				18
			],
			"min":[
				-30.190000534057617,
				-2,
				-22
			],
			"type":"VEC3"
		},
		{
			"bufferView":44,
			"componentType":5126,
			"count":5544,
			"type":"VEC3"
		},
		{
			"bufferView":45,
			"componentType":5123,
			"count":8796,
			"type":"SCALAR"
		},
		{
			"bufferView":46,
			"componentType":5126,
			"count":540,
			"max":[
				12,
				6.099999904632568,
				2
			],
			"min":[
				8,
				4.239999771118164,
				-2
			],
			"type":"VEC3"
		},
		{
			"bufferView":47,
			"componentType":5126,
			"count":540,
			"type":"VEC3"
		},
		{
			"bufferView":48,
			"componentType":5123,
			"count":1068,
			"type":"SCALAR"
		},
		{
			"bufferView":49,
			"componentType":5126,
			"count":144,
			"max":[
				11.640000343322754,
				4.539999961853027,
				1.6399999856948853
			],
			"min":[
				8.359999656677246,
				4.25,
				-1.6399999856948853
			],
			"type":"VEC3"
		},
		{
			"bufferView":50,
			"componentType":5126,
			"count":144,
			"type":"VEC3"
		},
		{
			"bufferView":51,
			"componentType":5123,
			"count":276,
			"type":"SCALAR"
		},
		{
			"bufferView":52,
			"componentType":5126,
			"count":384,
			"max":[
				29.16548728942871,
				5.869999885559082,
				15.60537338256836
			],
			"min":[
				-9.911608695983887,
				2.819999933242798,
				-4.741698741912842
			],
			"type":"VEC3"
		},
		{
			"bufferView":53,
			"componentType":5126,
			"count":384,
			"type":"VEC3"
		},
		{
			"bufferView":54,
			"componentType":5123,
			"count":672,
			"type":"SCALAR"
		},
		{
			"bufferView":55,
			"componentType":5126,
			"count":576,
			"max":[
				29.21259117126465,
				5.869999885559082,
				16.569690704345703
			],
			"min":[
				-10.234139442443848,
				2.819999933242798,
				-4.277143955230713
			],
			"type":"VEC3"
		},
		{
			"bufferView":56,
			"componentType":5126,
			"count":576,
			"type":"VEC3"
		},
		{
			"bufferView":57,
			"componentType":5123,
			"count":1008,
			"type":"SCALAR"
		},
		{
			"bufferView":58,
			"componentType":5126,
			"count":624,
			"max":[
				29.259693145751953,
				5.869999885559082,
				16.6949462890625
			],
			"min":[
				0.5235838294029236,
				2.819999933242798,
				-5.439999580383301
			],
			"type":"VEC3"
		},
		{
			"bufferView":59,
			"componentType":5126,
			"count":624,
			"type":"VEC3"
		},
		{
			"bufferView":60,
			"componentType":5123,
			"count":1092,
			"type":"SCALAR"
		},
		{
			"bufferView":61,
			"componentType":5126,
			"count":1320,
			"max":[
				31.261442184448242,
				7.71999979019165,
				18.74581527709961
			],
			"min":[
				-12.309276580810547,
				1.399999976158142,
				-7.421329021453857
			],
			"type":"VEC3"
		},
		{
			"bufferView":62,
			"componentType":5126,
			"count":1320,
			"type":"VEC3"
		},
		{
			"bufferView":63,
			"componentType":5123,
			"count":2112,
			"type":"SCALAR"
		},
		{
			"bufferView":64,
			"componentType":5126,
			"count":264,
			"max":[
				29.500478744506836,
				5.619999885559082,
				16.984071731567383
			],
			"min":[
				-10.629271507263184,
				1.7999999523162842,
				-5.650000095367432
			],
			"type":"VEC3"
		},
		{
			"bufferView":65,
			"componentType":5126,
			"count":264,
			"type":"VEC3"
		},
		{
			"bufferView":66,
			"componentType":5123,
			"count":396,
			"type":"SCALAR"
		},
		{
			"bufferView":67,
			"componentType":5126,
			"count":462,
			"max":[
				31.239290237426758,
				14.382830619812012,
				9.230295181274414
			],
			"min":[
				-9.22416877746582,
				1.3805392980575562,
				-26.42694664001465
			],
			"type":"VEC3"
		},
		{
			"bufferView":68,
			"componentType":5126,
			"count":462,
			"type":"VEC3"
		},
		{
			"bufferView":69,
			"componentType":5123,
			"count":792,
			"type":"SCALAR"
		},
		{
			"bufferView":70,
			"componentType":5126,
			"count":3724,
			"max":[
				33.97688293457031,
				15.24260139465332,
				11.05484676361084
			],
			"min":[
				-11.393061637878418,
				5.7244672775268555,
				-29.228120803833008
			],
			"type":"VEC3"
		},
		{
			"bufferView":71,
			"componentType":5126,
			"count":3724,
			"type":"VEC3"
		},
		{
			"bufferView":72,
			"componentType":5123,
			"count":5808,
			"type":"SCALAR"
		},
		{
			"bufferView":73,
			"componentType":5126,
			"count":2798,
			"max":[
				32.85907745361328,
				15.24260139465332,
				11.628121376037598
			],
			"min":[
				-11.393061637878418,
				5.7244672775268555,
				-28.65484619140625
			],
			"type":"VEC3"
		},
		{
			"bufferView":74,
			"componentType":5126,
			"count":2798,
			"type":"VEC3"
		},
		{
			"bufferView":75,
			"componentType":5123,
			"count":4356,
			"type":"SCALAR"
		},
		{
			"bufferView":76,
			"componentType":5126,
			"count":3024,
			"max":[
				28.14773941040039,
				1.5199999809265137,
				14.960677146911621
			],
			"min":[
				-10.094730377197266,
				1.399999976158142,
				-7.706645488739014
			],
			"type":"VEC3"
		},
		{
			"bufferView":77,
			"componentType":5126,
			"count":3024,
			"type":"VEC3"
		},
		{
			"bufferView":78,
			"componentType":5123,
			"count":4536,
			"type":"SCALAR"
		},
		{
			"bufferView":79,
			"componentType":5126,
			"count":2520,
			"max":[
				23.600000381469727,
				3.5999999046325684,
				16.739999771118164
			],
			"min":[
				-35.45000076293945,
				1,
				-20.139999389648438
			],
			"type":"VEC3"
		},
		{
			"bufferView":80,
			"componentType":5126,
			"count":2520,
			"type":"VEC3"
		},
		{
			"bufferView":81,
			"componentType":5123,
			"count":3780,
			"type":"SCALAR"
		},
		{
			"bufferView":82,
			"componentType":5126,
			"count":3000,
			"max":[
				30.24104881286621,
				8.619999885559082,
				17.742807388305664
			],
			"min":[
				-19.79199981689453,
				1.350000023841858,
				-21.466018676757812
			],
			"type":"VEC3"
		},
		{
			"bufferView":83,
			"componentType":5126,
			"count":3000,
			"type":"VEC3"
		},
		{
			"bufferView":84,
			"componentType":5123,
			"count":5040,
			"type":"SCALAR"
		},
		{
			"bufferView":85,
			"componentType":5126,
			"count":7200,
			"max":[
				30.207300186157227,
				8.470000267028809,
				17.710708618164062
			],
			"min":[
				-19.756000518798828,
				1.4859999418258667,
				-21.423219680786133
			],
			"type":"VEC3"
		},
		{
			"bufferView":86,
			"componentType":5126,
			"count":7200,
			"type":"VEC3"
		},
		{
			"bufferView":87,
			"componentType":5123,
			"count":14400,
			"type":"SCALAR"
		},
		{
			"bufferView":88,
			"componentType":5126,
			"count":192,
			"max":[
				23.5,
				3.5999999046325684,
				16.5
			],
			"min":[
				-18.524999618530273,
				1.350000023841858,
				-21.174999237060547
			],
			"type":"VEC3"
		},
		{
			"bufferView":89,
			"componentType":5126,
			"count":192,
			"type":"VEC3"
		},
		{
			"bufferView":90,
			"componentType":5123,
			"count":288,
			"type":"SCALAR"
		},
		{
			"bufferView":91,
			"componentType":5126,
			"count":120,
			"max":[
				-13.475000381469727,
				2.4000000953674316,
				15.875
			],
			"min":[
				-35.45000076293945,
				1,
				-13.449999809265137
			],
			"type":"VEC3"
		},
		{
			"bufferView":92,
			"componentType":5126,
			"count":120,
			"type":"VEC3"
		},
		{
			"bufferView":93,
			"componentType":5123,
			"count":180,
			"type":"SCALAR"
		},
		{
			"bufferView":94,
			"componentType":5126,
			"count":192,
			"max":[
				23.600000381469727,
				2.5999999046325684,
				16.600000381469727
			],
			"min":[
				-18.524999618530273,
				1.350000023841858,
				-21.174999237060547
			],
			"type":"VEC3"
		},
		{
			"bufferView":95,
			"componentType":5126,
			"count":192,
			"type":"VEC3"
		},
		{
			"bufferView":96,
			"componentType":5126,
			"count":288,
			"max":[
				-30.8799991607666,
				9,
				17.720001220703125
			],
			"min":[
				-35.119998931884766,
				1,
				-12.519999504089355
			],
			"type":"VEC3"
		},
		{
			"bufferView":97,
			"componentType":5126,
			"count":288,
			"type":"VEC3"
		},
		{
			"bufferView":98,
			"componentType":5123,
			"count":504,
			"type":"SCALAR"
		},
		{
			"bufferView":99,
			"componentType":5126,
			"count":648,
			"max":[
				-29,
				8.336291313171387,
				17.665000915527344
			],
			"min":[
				-37,
				3.743708372116089,
				-12.464999198913574
			],
			"type":"VEC3"
		},
		{
			"bufferView":100,
			"componentType":5126,
			"count":648,
			"type":"VEC3"
		},
		{
			"bufferView":101,
			"componentType":5123,
			"count":1080,
			"type":"SCALAR"
		},
		{
			"bufferView":102,
			"componentType":5126,
			"count":288,
			"max":[
				-29.28030014038086,
				8.606602668762207,
				17.620424270629883
			],
			"min":[
				-36.71969985961914,
				0.9920454621315002,
				-13.620424270629883
			],
			"type":"VEC3"
		},
		{
			"bufferView":103,
			"componentType":5126,
			"count":288,
			"type":"VEC3"
		},
		{
			"bufferView":104,
			"componentType":5123,
			"count":432,
			"type":"SCALAR"
		},
		{
			"bufferView":105,
			"componentType":5126,
			"count":180,
			"max":[
				35.36172103881836,
				1.979191780090332,
				27.328155517578125
			],
			"min":[
				-14.361720085144043,
				-0.6583836078643799,
				-4.328156471252441
			],
			"type":"VEC3"
		},
		{
			"bufferView":106,
			"componentType":5126,
			"count":180,
			"type":"VEC3"
		},
		{
			"bufferView":107,
			"componentType":5123,
			"count":300,
			"type":"SCALAR"
		},
		{
			"bufferView":108,
			"componentType":5126,
			"count":244,
			"max":[
				28.871004104614258,
				16.8700008392334,
				-9.579873085021973
			],
			"min":[
				-10.587993621826172,
				4.079999923706055,
				-24.874435424804688
			],
			"type":"VEC3"
		},
		{
			"bufferView":109,
			"componentType":5126,
			"count":244,
			"type":"VEC3"
		},
		{
			"bufferView":110,
			"componentType":5123,
			"count":396,
			"type":"SCALAR"
		},
		{
			"bufferView":111,
			"componentType":5126,
			"count":378,
			"max":[
				-17.986000061035156,
				0.8999999761581421,
				23.652000427246094
			],
			"min":[
				-37.14500045776367,
				-0.3499999940395355,
				-24.106000900268555
			],
			"type":"VEC3"
		},
		{
			"bufferView":112,
			"componentType":5126,
			"count":378,
			"type":"VEC3"
		},
		{
			"bufferView":113,
			"componentType":5123,
			"count":672,
			"type":"SCALAR"
		},
		{
			"bufferView":114,
			"componentType":5126,
			"count":96,
			"max":[
				-18.375,
				1.9500000476837158,
				21.274999618530273
			],
			"min":[
				-24.625,
				0.949999988079071,
				-23.274999618530273
			],
			"type":"VEC3"
		},
		{
			"bufferView":115,
			"componentType":5126,
			"count":96,
			"type":"VEC3"
		},
		{
			"bufferView":116,
			"componentType":5123,
			"count":144,
			"type":"SCALAR"
		},
		{
			"bufferView":117,
			"componentType":5126,
			"count":96,
			"max":[
				-18.575000762939453,
				1.7699999809265137,
				21.360000610351562
			],
			"min":[
				-24.424999237060547,
				1.3300000429153442,
				-21.739999771118164
			],
			"type":"VEC3"
		},
		{
			"bufferView":118,
			"componentType":5126,
			"count":96,
			"type":"VEC3"
		},
		{
			"bufferView":119,
			"componentType":5126,
			"count":96,
			"max":[
				-18.25,
				2.0799999237060547,
				21.424999237060547
			],
			"min":[
				-24.75,
				1.940000057220459,
				-23.424999237060547
			],
			"type":"VEC3"
		},
		{
			"bufferView":120,
			"componentType":5126,
			"count":96,
			"type":"VEC3"
		},
		{
			"bufferView":121,
			"componentType":5126,
			"count":1512,
			"max":[
				-17.86618423461914,
				1.1200000047683716,
				23.749048233032227
			],
			"min":[
				-37.26481628417969,
				0.8799999952316284,
				-24.226001739501953
			],
			"type":"VEC3"
		},
		{
			"bufferView":122,
			"componentType":5126,
			"count":1512,
			"type":"VEC3"
		},
		{
			"bufferView":123,
			"componentType":5123,
			"count":2268,
			"type":"SCALAR"
		},
		{
			"bufferView":124,
			"componentType":5126,
			"count":1824,
			"max":[
				30.784582138061523,
				7.550000190734863,
				13.491613388061523
			],
			"min":[
				-7.729918956756592,
				1.3200000524520874,
				-16.996999740600586
			],
			"type":"VEC3"
		},
		{
			"bufferView":125,
			"componentType":5126,
			"count":1824,
			"type":"VEC3"
		},
		{
			"bufferView":126,
			"componentType":5123,
			"count":2736,
			"type":"SCALAR"
		},
		{
			"bufferView":127,
			"componentType":5126,
			"count":660,
			"max":[
				24.5,
				10.319999694824219,
				1.5
			],
			"min":[
				-5.5,
				4.21999979019165,
				-23.5
			],
			"type":"VEC3"
		},
		{
			"bufferView":128,
			"componentType":5126,
			"count":660,
			"type":"VEC3"
		},
		{
			"bufferView":129,
			"componentType":5123,
			"count":1080,
			"type":"SCALAR"
		},
		{
			"bufferView":130,
			"componentType":5126,
			"count":38,
			"max":[
				28,
				7.519999980926514,
				9
			],
			"min":[
				-8,
				4.21999979019165,
				-28
			],
			"type":"VEC3"
		},
		{
			"bufferView":131,
			"componentType":5126,
			"count":38,
			"type":"VEC3"
		},
		{
			"bufferView":132,
			"componentType":5123,
			"count":102,
			"type":"SCALAR"
		},
		{
			"bufferView":133,
			"componentType":5126,
			"count":190,
			"max":[
				28,
				7.519999980926514,
				9
			],
			"min":[
				-8,
				1.4299999475479126,
				-28
			],
			"type":"VEC3"
		},
		{
			"bufferView":134,
			"componentType":5126,
			"count":190,
			"type":"VEC3"
		},
		{
			"bufferView":135,
			"componentType":5123,
			"count":330,
			"type":"SCALAR"
		},
		{
			"bufferView":136,
			"componentType":5126,
			"count":55,
			"max":[
				34,
				1.399999976158142,
				25
			],
			"min":[
				-13,
				-2.4000000953674316,
				-29
			],
			"type":"VEC3"
		},
		{
			"bufferView":137,
			"componentType":5126,
			"count":55,
			"type":"VEC3"
		},
		{
			"bufferView":138,
			"componentType":5123,
			"count":93,
			"type":"SCALAR"
		},
		{
			"bufferView":139,
			"componentType":5126,
			"count":11,
			"max":[
				34,
				1.399999976158142,
				25
			],
			"min":[
				-13,
				1.399999976158142,
				-29
			],
			"type":"VEC3"
		},
		{
			"bufferView":140,
			"componentType":5126,
			"count":11,
			"type":"VEC3"
		},
		{
			"bufferView":141,
			"componentType":5123,
			"count":27,
			"type":"SCALAR"
		},
		{
			"bufferView":142,
			"componentType":5126,
			"count":1152,
			"max":[
				28.99799919128418,
				17.024812698364258,
				-9.432478904724121
			],
			"min":[
				-10.723508834838867,
				2.625,
				-19.698884963989258
			],
			"type":"VEC3"
		},
		{
			"bufferView":143,
			"componentType":5126,
			"count":1152,
			"type":"VEC3"
		},
		{
			"bufferView":144,
			"componentType":5123,
			"count":1728,
			"type":"SCALAR"
		}
	],
	"bufferViews":[
		{
			"buffer":0,
			"byteLength":2304,
			"byteOffset":0,
			"target":34962
		},
		{
			"buffer":0,
			"byteLength":2304,
			"byteOffset":2304,
			"target":34962
		},
		{
			"buffer":0,
			"byteLength":576,
			"byteOffset":4608,
			"target":34963
		},
		{
			"buffer":0,
			"byteLength":2304,
			"byteOffset":5184,
			"target":34962
		},
		{
			"buffer":0,
			"byteLength":2304,
			"byteOffset":7488,
			"target":34962
		},
		{
			"buffer":0,
			"byteLength":576,
			"byteOffset":9792,
			"target":34963
		},
		{
			"buffer":0,
			"byteLength":2304,
			"byteOffset":10368,
			"target":34962
		},
		{
			"buffer":0,
			"byteLength":2304,
			"byteOffset":12672,
			"target":34962
		},
		{
			"buffer":0,
			"byteLength":576,
			"byteOffset":14976,
			"target":34963
		},
		{
			"buffer":0,
			"byteLength":3456,
			"byteOffset":15552,
			"target":34962
		},
		{
			"buffer":0,
			"byteLength":3456,
			"byteOffset":19008,
			"target":34962
		},
		{
			"buffer":0,
			"byteLength":864,
			"byteOffset":22464,
			"target":34963
		},
		{
			"buffer":0,
			"byteLength":9504,
			"byteOffset":23328,
			"target":34962
		},
		{
			"buffer":0,
			"byteLength":9504,
			"byteOffset":32832,
			"target":34962
		},
		{
			"buffer":0,
			"byteLength":2376,
			"byteOffset":42336,
			"target":34963
		},
		{
			"buffer":0,
			"byteLength":2304,
			"byteOffset":44712,
			"target":34962
		},
		{
			"buffer":0,
			"byteLength":2304,
			"byteOffset":47016,
			"target":34962
		},
		{
			"buffer":0,
			"byteLength":576,
			"byteOffset":49320,
			"target":34963
		},
		{
			"buffer":0,
			"byteLength":1728,
			"byteOffset":49896,
			"target":34962
		},
		{
			"buffer":0,
			"byteLength":1728,
			"byteOffset":51624,
			"target":34962
		},
		{
			"buffer":0,
			"byteLength":432,
			"byteOffset":53352,
			"target":34963
		},
		{
			"buffer":0,
			"byteLength":2160,
			"byteOffset":53784,
			"target":34962
		},
		{
			"buffer":0,
			"byteLength":2160,
			"byteOffset":55944,
			"target":34962
		},
		{
			"buffer":0,
			"byteLength":576,
			"byteOffset":58104,
			"target":34963
		},
		{
			"buffer":0,
			"byteLength":864,
			"byteOffset":58680,
			"target":34962
		},
		{
			"buffer":0,
			"byteLength":864,
			"byteOffset":59544,
			"target":34962
		},
		{
			"buffer":0,
			"byteLength":240,
			"byteOffset":60408,
			"target":34963
		},
		{
			"buffer":0,
			"byteLength":432,
			"byteOffset":60648,
			"target":34962
		},
		{
			"buffer":0,
			"byteLength":432,
			"byteOffset":61080,
			"target":34962
		},
		{
			"buffer":0,
			"byteLength":120,
			"byteOffset":61512,
			"target":34963
		},
		{
			"buffer":0,
			"byteLength":288,
			"byteOffset":61632,
			"target":34962
		},
		{
			"buffer":0,
			"byteLength":288,
			"byteOffset":61920,
			"target":34962
		},
		{
			"buffer":0,
			"byteLength":72,
			"byteOffset":62208,
			"target":34963
		},
		{
			"buffer":0,
			"byteLength":1728,
			"byteOffset":62280,
			"target":34962
		},
		{
			"buffer":0,
			"byteLength":1728,
			"byteOffset":64008,
			"target":34962
		},
		{
			"buffer":0,
			"byteLength":25344,
			"byteOffset":65736,
			"target":34962
		},
		{
			"buffer":0,
			"byteLength":25344,
			"byteOffset":91080,
			"target":34962
		},
		{
			"buffer":0,
			"byteLength":6336,
			"byteOffset":116424,
			"target":34963
		},
		{
			"buffer":0,
			"byteLength":1728,
			"byteOffset":122760,
			"target":34962
		},
		{
			"buffer":0,
			"byteLength":1728,
			"byteOffset":124488,
			"target":34962
		},
		{
			"buffer":0,
			"byteLength":6336,
			"byteOffset":126216,
			"target":34962
		},
		{
			"buffer":0,
			"byteLength":6336,
			"byteOffset":132552,
			"target":34962
		},
		{
			"buffer":0,
			"byteLength":1584,
			"byteOffset":138888,
			"target":34963
		},
		{
			"buffer":0,
			"byteLength":66528,
			"byteOffset":140472,
			"target":34962
		},
		{
			"buffer":0,
			"byteLength":66528,
			"byteOffset":207000,
			"target":34962
		},
		{
			"buffer":0,
			"byteLength":17592,
			"byteOffset":273528,
			"target":34963
		},
		{
			"buffer":0,
			"byteLength":6480,
			"byteOffset":291120,
			"target":34962
		},
		{
			"buffer":0,
			"byteLength":6480,
			"byteOffset":297600,
			"target":34962
		},
		{
			"buffer":0,
			"byteLength":2136,
			"byteOffset":304080,
			"target":34963
		},
		{
			"buffer":0,
			"byteLength":1728,
			"byteOffset":306216,
			"target":34962
		},
		{
			"buffer":0,
			"byteLength":1728,
			"byteOffset":307944,
			"target":34962
		},
		{
			"buffer":0,
			"byteLength":552,
			"byteOffset":309672,
			"target":34963
		},
		{
			"buffer":0,
			"byteLength":4608,
			"byteOffset":310224,
			"target":34962
		},
		{
			"buffer":0,
			"byteLength":4608,
			"byteOffset":314832,
			"target":34962
		},
		{
			"buffer":0,
			"byteLength":1344,
			"byteOffset":319440,
			"target":34963
		},
		{
			"buffer":0,
			"byteLength":6912,
			"byteOffset":320784,
			"target":34962
		},
		{
			"buffer":0,
			"byteLength":6912,
			"byteOffset":327696,
			"target":34962
		},
		{
			"buffer":0,
			"byteLength":2016,
			"byteOffset":334608,
			"target":34963
		},
		{
			"buffer":0,
			"byteLength":7488,
			"byteOffset":336624,
			"target":34962
		},
		{
			"buffer":0,
			"byteLength":7488,
			"byteOffset":344112,
			"target":34962
		},
		{
			"buffer":0,
			"byteLength":2184,
			"byteOffset":351600,
			"target":34963
		},
		{
			"buffer":0,
			"byteLength":15840,
			"byteOffset":353784,
			"target":34962
		},
		{
			"buffer":0,
			"byteLength":15840,
			"byteOffset":369624,
			"target":34962
		},
		{
			"buffer":0,
			"byteLength":4224,
			"byteOffset":385464,
			"target":34963
		},
		{
			"buffer":0,
			"byteLength":3168,
			"byteOffset":389688,
			"target":34962
		},
		{
			"buffer":0,
			"byteLength":3168,
			"byteOffset":392856,
			"target":34962
		},
		{
			"buffer":0,
			"byteLength":792,
			"byteOffset":396024,
			"target":34963
		},
		{
			"buffer":0,
			"byteLength":5544,
			"byteOffset":396816,
			"target":34962
		},
		{
			"buffer":0,
			"byteLength":5544,
			"byteOffset":402360,
			"target":34962
		},
		{
			"buffer":0,
			"byteLength":1584,
			"byteOffset":407904,
			"target":34963
		},
		{
			"buffer":0,
			"byteLength":44688,
			"byteOffset":409488,
			"target":34962
		},
		{
			"buffer":0,
			"byteLength":44688,
			"byteOffset":454176,
			"target":34962
		},
		{
			"buffer":0,
			"byteLength":11616,
			"byteOffset":498864,
			"target":34963
		},
		{
			"buffer":0,
			"byteLength":33576,
			"byteOffset":510480,
			"target":34962
		},
		{
			"buffer":0,
			"byteLength":33576,
			"byteOffset":544056,
			"target":34962
		},
		{
			"buffer":0,
			"byteLength":8712,
			"byteOffset":577632,
			"target":34963
		},
		{
			"buffer":0,
			"byteLength":36288,
			"byteOffset":586344,
			"target":34962
		},
		{
			"buffer":0,
			"byteLength":36288,
			"byteOffset":622632,
			"target":34962
		},
		{
			"buffer":0,
			"byteLength":9072,
			"byteOffset":658920,
			"target":34963
		},
		{
			"buffer":0,
			"byteLength":30240,
			"byteOffset":667992,
			"target":34962
		},
		{
			"buffer":0,
			"byteLength":30240,
			"byteOffset":698232,
			"target":34962
		},
		{
			"buffer":0,
			"byteLength":7560,
			"byteOffset":728472,
			"target":34963
		},
		{
			"buffer":0,
			"byteLength":36000,
			"byteOffset":736032,
			"target":34962
		},
		{
			"buffer":0,
			"byteLength":36000,
			"byteOffset":772032,
			"target":34962
		},
		{
			"buffer":0,
			"byteLength":10080,
			"byteOffset":808032,
			"target":34963
		},
		{
			"buffer":0,
			"byteLength":86400,
			"byteOffset":818112,
			"target":34962
		},
		{
			"buffer":0,
			"byteLength":86400,
			"byteOffset":904512,
			"target":34962
		},
		{
			"buffer":0,
			"byteLength":28800,
			"byteOffset":990912,
			"target":34963
		},
		{
			"buffer":0,
			"byteLength":2304,
			"byteOffset":1019712,
			"target":34962
		},
		{
			"buffer":0,
			"byteLength":2304,
			"byteOffset":1022016,
			"target":34962
		},
		{
			"buffer":0,
			"byteLength":576,
			"byteOffset":1024320,
			"target":34963
		},
		{
			"buffer":0,
			"byteLength":1440,
			"byteOffset":1024896,
			"target":34962
		},
		{
			"buffer":0,
			"byteLength":1440,
			"byteOffset":1026336,
			"target":34962
		},
		{
			"buffer":0,
			"byteLength":360,
			"byteOffset":1027776,
			"target":34963
		},
		{
			"buffer":0,
			"byteLength":2304,
			"byteOffset":1028136,
			"target":34962
		},
		{
			"buffer":0,
			"byteLength":2304,
			"byteOffset":1030440,
			"target":34962
		},
		{
			"buffer":0,
			"byteLength":3456,
			"byteOffset":1032744,
			"target":34962
		},
		{
			"buffer":0,
			"byteLength":3456,
			"byteOffset":1036200,
			"target":34962
		},
		{
			"buffer":0,
			"byteLength":1008,
			"byteOffset":1039656,
			"target":34963
		},
		{
			"buffer":0,
			"byteLength":7776,
			"byteOffset":1040664,
			"target":34962
		},
		{
			"buffer":0,
			"byteLength":7776,
			"byteOffset":1048440,
			"target":34962
		},
		{
			"buffer":0,
			"byteLength":2160,
			"byteOffset":1056216,
			"target":34963
		},
		{
			"buffer":0,
			"byteLength":3456,
			"byteOffset":1058376,
			"target":34962
		},
		{
			"buffer":0,
			"byteLength":3456,
			"byteOffset":1061832,
			"target":34962
		},
		{
			"buffer":0,
			"byteLength":864,
			"byteOffset":1065288,
			"target":34963
		},
		{
			"buffer":0,
			"byteLength":2160,
			"byteOffset":1066152,
			"target":34962
		},
		{
			"buffer":0,
			"byteLength":2160,
			"byteOffset":1068312,
			"target":34962
		},
		{
			"buffer":0,
			"byteLength":600,
			"byteOffset":1070472,
			"target":34963
		},
		{
			"buffer":0,
			"byteLength":2928,
			"byteOffset":1071072,
			"target":34962
		},
		{
			"buffer":0,
			"byteLength":2928,
			"byteOffset":1074000,
			"target":34962
		},
		{
			"buffer":0,
			"byteLength":792,
			"byteOffset":1076928,
			"target":34963
		},
		{
			"buffer":0,
			"byteLength":4536,
			"byteOffset":1077720,
			"target":34962
		},
		{
			"buffer":0,
			"byteLength":4536,
			"byteOffset":1082256,
			"target":34962
		},
		{
			"buffer":0,
			"byteLength":1344,
			"byteOffset":1086792,
			"target":34963
		},
		{
			"buffer":0,
			"byteLength":1152,
			"byteOffset":1088136,
			"target":34962
		},
		{
			"buffer":0,
			"byteLength":1152,
			"byteOffset":1089288,
			"target":34962
		},
		{
			"buffer":0,
			"byteLength":288,
			"byteOffset":1090440,
			"target":34963
		},
		{
			"buffer":0,
			"byteLength":1152,
			"byteOffset":1090728,
			"target":34962
		},
		{
			"buffer":0,
			"byteLength":1152,
			"byteOffset":1091880,
			"target":34962
		},
		{
			"buffer":0,
			"byteLength":1152,
			"byteOffset":1093032,
			"target":34962
		},
		{
			"buffer":0,
			"byteLength":1152,
			"byteOffset":1094184,
			"target":34962
		},
		{
			"buffer":0,
			"byteLength":18144,
			"byteOffset":1095336,
			"target":34962
		},
		{
			"buffer":0,
			"byteLength":18144,
			"byteOffset":1113480,
			"target":34962
		},
		{
			"buffer":0,
			"byteLength":4536,
			"byteOffset":1131624,
			"target":34963
		},
		{
			"buffer":0,
			"byteLength":21888,
			"byteOffset":1136160,
			"target":34962
		},
		{
			"buffer":0,
			"byteLength":21888,
			"byteOffset":1158048,
			"target":34962
		},
		{
			"buffer":0,
			"byteLength":5472,
			"byteOffset":1179936,
			"target":34963
		},
		{
			"buffer":0,
			"byteLength":7920,
			"byteOffset":1185408,
			"target":34962
		},
		{
			"buffer":0,
			"byteLength":7920,
			"byteOffset":1193328,
			"target":34962
		},
		{
			"buffer":0,
			"byteLength":2160,
			"byteOffset":1201248,
			"target":34963
		},
		{
			"buffer":0,
			"byteLength":456,
			"byteOffset":1203408,
			"target":34962
		},
		{
			"buffer":0,
			"byteLength":456,
			"byteOffset":1203864,
			"target":34962
		},
		{
			"buffer":0,
			"byteLength":204,
			"byteOffset":1204320,
			"target":34963
		},
		{
			"buffer":0,
			"byteLength":2280,
			"byteOffset":1204524,
			"target":34962
		},
		{
			"buffer":0,
			"byteLength":2280,
			"byteOffset":1206804,
			"target":34962
		},
		{
			"buffer":0,
			"byteLength":660,
			"byteOffset":1209084,
			"target":34963
		},
		{
			"buffer":0,
			"byteLength":660,
			"byteOffset":1209744,
			"target":34962
		},
		{
			"buffer":0,
			"byteLength":660,
			"byteOffset":1210404,
			"target":34962
		},
		{
			"buffer":0,
			"byteLength":186,
			"byteOffset":1211064,
			"target":34963
		},
		{
			"buffer":0,
			"byteLength":132,
			"byteOffset":1211252,
			"target":34962
		},
		{
			"buffer":0,
			"byteLength":132,
			"byteOffset":1211384,
			"target":34962
		},
		{
			"buffer":0,
			"byteLength":54,
			"byteOffset":1211516,
			"target":34963
		},
		{
			"buffer":0,
			"byteLength":13824,
			"byteOffset":1211572,
			"target":34962
		},
		{
			"buffer":0,
			"byteLength":13824,
			"byteOffset":1225396,
			"target":34962
		},
		{
			"buffer":0,
			"byteLength":3456,
			"byteOffset":1239220,
			"target":34963
		}
	],
	"buffers":[
		{
			"byteLength":1242676,
			"uri":"MarketHarbor.bin"
		}
	]
}
